<?xml version="1.0" encoding="utf-8"?>
<svg version="1.1" id="Layer_1" xmlns="http://www.w3.org/2000/svg" xmlns:xlink="http://www.w3.org/1999/xlink" x="0px" y="0px" viewBox="0 0 16 16" style="enable-background:new 0 0 16 16;" xml:space="preserve">
  <title>Chevron</title>
  <g transform="translate(7.872500, 7.896748) rotate(90.000000) translate(-7.872500, -7.896748) ">
    <path id="path-1_1_" class="st0" d="M5.8,0.3l6.3,6.3c0.3,0.3,0.4,0.8,0.2,1.1c0.2,0.4,0.1,0.9-0.2,1.2l0,0l-6.3,6.3
      c-0.4,0.4-1,0.4-1.4,0l0,0l-0.5-0.5c-0.4-0.4-0.4-1,0-1.4l0,0l5.6-5.6L3.9,2.1c-0.4-0.4-0.4-1,0-1.4l0.5-0.5
      C4.8-0.1,5.4-0.1,5.8,0.3z"/>
  </g>
</svg>
