<?xml version="1.0" encoding="UTF-8"?>
<svg width="24px" height="24px" viewBox="0 0 24 24" version="1.1" xmlns="http://www.w3.org/2000/svg" xmlns:xlink="http://www.w3.org/1999/xlink">
    <title>User</title>
    <defs>
        <path d="M12,0 C18.627417,0 24,5.372583 24,12 C24,18.627417 18.627417,24 12,24 C5.372583,24 0,18.627417 0,12 C0,5.372583 5.372583,0 12,0 Z M12,2.25 C6.61522369,2.25 2.25,6.61522369 2.25,12 C2.25,14.4150393 3.12805067,16.6249989 4.58232864,18.3280554 C4.69032705,17.716063 4.89877184,17.1767227 5.17221281,16.8770861 C5.49805329,16.5198762 8.55434494,15.9228463 8.55434494,15.9228463 C9.55125787,15.710441 9.90170373,14.8307947 9.37881256,13.9317916 C9.37881256,13.9317916 8.25,12.5058949 8.25,10.6875 C8.25,8.04452231 8.77745954,6 12,6 C15.2229778,6 15.75,8.04452231 15.75,10.6875 C15.75,12.5002695 14.6192476,13.9362746 14.6192476,13.9362746 C14.083084,14.8161034 14.4693468,15.7026639 15.4848235,15.926084 C15.4848235,15.926084 18.5198592,16.5283143 18.8360776,16.8770861 C19.1072737,17.1765606 19.3132647,17.7154794 19.4195763,18.326371 C20.8722932,16.6241334 21.75,14.4145664 21.75,12 C21.75,6.61522369 17.3847763,2.25 12,2.25 Z" id="path-1"></path>
    </defs>
    <g id="Icons---In-Use-(ME)" stroke="none" stroke-width="1" fill="none" fill-rule="evenodd">
        <g id="Icons" transform="translate(-785.000000, -202.000000)">
            <g id="User" transform="translate(785.000000, 202.000000)">
                <rect id="Rectangle-3" x="0" y="0" width="24" height="24"></rect>
                <mask id="mask-2" fill="white">
                    <use xlink:href="#path-1"></use>
                </mask>
                <use id="Combined-Shape-Copy-13" fill="#1C2530" xlink:href="#path-1"></use>
            </g>
        </g>
    </g>
</svg>