<?xml version="1.0" encoding="UTF-8"?>
<svg width="20px" height="24px" viewBox="0 0 20 24" version="1.1" xmlns="http://www.w3.org/2000/svg" xmlns:xlink="http://www.w3.org/1999/xlink">
    <title>Alert</title>
    <defs>
        <path d="M9.868,20.096 L16.5972881,21.9603393 C16.0089096,23.1705661 14.8168818,24 13.4338414,24 C11.4616769,24 9.86366675,22.3203966 9.86366675,20.2492109 L9.868,20.096 Z M16.6398583,0.257504867 C20.497075,1.32497945 22.785557,5.42459196 21.7516344,9.41468143 L21.7435146,9.4460584 C21.7006999,9.61150061 21.4925191,10.4158921 21.2132521,11.4941189 L21.0033258,12.3035392 C20.7734065,13.1932264 20.5149259,14.1879357 20.2650137,15.1533888 C19.6745068,17.4346187 21.5517046,21.7442754 21.5517046,21.7442754 L16.981881,20.478009 L16.978,20.517 L10.214967,18.6436872 C10.2206193,18.6314597 10.2263334,18.619269 10.2321088,18.6071154 L2,16.3251353 C2,16.3251353 5.71655184,13.5367987 6.31134294,11.2390653 C6.95267614,8.7642264 7.64711937,6.08231918 7.76808151,5.6151529 L7.78653912,5.54386705 L7.78653912,5.54386705 C8.81974767,1.5552779 12.7840696,-0.813720506 16.6398583,0.257504867 Z" id="path-1"></path>
    </defs>
    <g id="Icons---In-Use-(ME)" stroke="none" stroke-width="1" fill="none" fill-rule="evenodd">
        <g id="Icons" transform="translate(-667.000000, -791.000000)">
            <g id="Alert" transform="translate(665.000000, 791.000000)">
                <rect id="Rectangle-4" x="0" y="0" width="24" height="24"></rect>
                <mask id="mask-2" fill="white">
                    <use xlink:href="#path-1"></use>
                </mask>
                <use id="Path-Copy-22" fill="#1C2530" xlink:href="#path-1"></use>
                <g id="Group" mask="url(#mask-2)" fill="#1C2530">
                    <g id="💟-Icon-Style">
                        <rect id="Rectangle-2" x="0" y="0" width="24" height="24"></rect>
                    </g>
                </g>
            </g>
        </g>
    </g>
</svg>