<?xml version="1.0" encoding="UTF-8"?>
<svg width="14px" height="24px" viewBox="0 0 14 24" version="1.1" xmlns="http://www.w3.org/2000/svg" xmlns:xlink="http://www.w3.org/1999/xlink">
    <title>Baptism</title>
    <defs>
        <path d="M12.001714,0 C12.001714,0 11.4811752,2.64650124 9.91955897,5.35323972 C9.86173839,5.35323972 5.63960783,13.653688 5.63960783,13.653688 C5.63960783,13.653688 4.94555617,15.2774863 5.00342792,16.7813423 C5.0612485,16.7813423 5.00342792,23.8186708 12.001714,23.9991164 C12.001714,23.9991164 18.4216407,24.239693 19,16.7813423 C18.9421794,16.7813423 19.1735129,14.9167546 17.9589225,12.7514064 C18.0167943,12.8717212 14.0838178,5.59376302 14.0838178,5.59376302 C14.0838178,5.59376302 12.6955609,2.64650124 12.001714,0 Z" id="path-1"></path>
    </defs>
    <g id="Icons---In-Use-(ME)" stroke="none" stroke-width="1" fill="none" fill-rule="evenodd">
        <g id="Icons" transform="translate(-68.000000, -717.000000)">
            <g id="Baptism" transform="translate(63.000000, 717.000000)">
                <rect id="Rectangle-5" x="0" y="0" width="24" height="24"></rect>
                <mask id="mask-2" fill="#1C2530">
                    <use xlink:href="#path-1"></use>
                </mask>
                <use id="Shape" fill="#1C2530" fill-rule="nonzero" xlink:href="#path-1"></use>
                <g id="Group" mask="url(#mask-2)" fill="#1C2530">
                    <g id="💟-Icon-Style">
                        <rect id="Rectangle-2" x="0" y="0" width="24" height="24"></rect>
                    </g>
                </g>
            </g>
        </g>
    </g>
</svg>