<?xml version="1.0" encoding="UTF-8"?>
<svg width="32px" height="32px" viewBox="0 0 32 32" version="1.1" xmlns="http://www.w3.org/2000/svg" xmlns:xlink="http://www.w3.org/1999/xlink">
    <title>Close X Circle @2x</title>
    <defs>
        <path d="M9.94957983,8.06722689 L15.5966387,2.42016807 C16.1344538,1.88235294 16.1344538,1.07563025 15.5966387,0.537815126 C15.0588235,7.52588157e-17 14.2521008,7.52588157e-17 13.7142857,0.537815126 L8.06722689,6.05042017 L2.28571429,0.403361345 C1.74789916,-0.134453782 0.941176471,-0.134453782 0.403361345,0.403361345 C-0.134453782,0.941176471 -0.134453782,1.74789916 0.403361345,2.28571429 L6.05042017,8.06722689 L0.403361345,13.7142857 C-0.134453782,14.2521008 -0.134453782,15.0588235 0.403361345,15.5966387 C0.941176471,16.1344538 1.74789916,16.1344538 2.28571429,15.5966387 L8.06722689,9.94957983 L13.7142857,15.5966387 C14.2521008,16.1344538 15.0588235,16.1344538 15.5966387,15.5966387 C16.1344538,15.0588235 16.1344538,14.2521008 15.5966387,13.7142857 L9.94957983,8.06722689 L9.94957983,8.06722689 Z" id="path-1"></path>
    </defs>
    <g id="Bugs" stroke="none" stroke-width="1" fill="none" fill-rule="evenodd">
        <g id="Close-X-Circle-@2x">
            <circle id="Oval-3" fill-opacity="0.8" fill="#1C2530" cx="16" cy="16" r="16"></circle>
            <g id="Close-X---Gray-@2x" transform="translate(8.000000, 8.000000)">
                <rect id="Rectangle-3" x="0" y="0" width="16" height="16"></rect>
                <mask id="mask-2" fill="white">
                    <use xlink:href="#path-1"></use>
                </mask>
                <use id="X" fill="#1C2530" xlink:href="#path-1"></use>
                <g id="Group" mask="url(#mask-2)" fill="#FFFFFF">
                    <g id="💟-Icon-Style">
                        <rect id="Rectangle-2" x="0" y="0" width="16" height="16"></rect>
                    </g>
                </g>
            </g>
        </g>
    </g>
</svg>
