<?xml version="1.0" encoding="UTF-8"?>
<svg width="13px" height="16px" viewBox="0 0 13 16" version="1.1" xmlns="http://www.w3.org/2000/svg" xmlns:xlink="http://www.w3.org/1999/xlink">
    <title>Rectangle 581 Copy 5</title>
    <g id="Ministry-App-Home---v1.2" stroke="none" stroke-width="1" fill="none" fill-rule="evenodd">
        <g id="Person-Notes---05" transform="translate(-22.000000, -385.000000)" fill="#F99E49">
            <g id="Group-2-[22v-l]" transform="translate(22.000000, 218.000000)">
                <g id="Group" transform="translate(0.000000, 167.000000)">
                    <path d="M7.15,0 L7.15,3.66881198 C7.15,4.76876649 8.04403195,5.66666667 9.14687625,5.66666667 L9.14687625,5.66666667 L13,5.66666667 L13,12.9905224 C13,14.652611 11.6577357,16 10.0012144,16 L2.99878564,16 C1.34260206,16 0,14.6633689 0,12.9905224 L0,3.00947762 C0,1.34738902 1.34226429,0 2.99878564,0 L7.15,0 Z M8.00294833,11.965332 C8.33618607,11.965332 8.61206456,12.2098857 8.65947026,12.532905 L8.66666667,12.6319987 C8.66666667,13.0001885 8.37010868,13.2986654 8.00294833,13.2986654 L1.99705167,13.2986654 C1.63049015,13.2986654 1.33333333,13.0027555 1.33333333,12.6319987 C1.33333333,12.2638089 1.62989132,11.965332 1.99705167,11.965332 L8.00294833,11.965332 Z M11.0357483,9.29866536 C11.3692538,9.29866536 11.645354,9.54321899 11.6927978,9.86623834 L11.7,9.96533203 C11.7,10.3335219 11.4009258,10.6319987 11.0357483,10.6319987 L1.997585,10.6319987 C1.63072893,10.6319987 1.33333333,10.3360888 1.33333333,9.96533203 C1.33333333,9.5971422 1.63240754,9.29866536 1.997585,9.29866536 L11.0357483,9.29866536 Z M9.08955828,6.6319987 C9.42115091,6.6319987 9.69566745,6.87655232 9.74283912,7.19957167 L9.75,7.29866536 C9.75,7.6668552 9.45044638,7.96533203 9.08955828,7.96533203 L1.99377505,7.96533203 C1.62902316,7.96533203 1.33333333,7.66942215 1.33333333,7.29866536 C1.33333333,6.93047553 1.63288696,6.6319987 1.99377505,6.6319987 L9.08955828,6.6319987 Z M4.52647807,3.96533203 C4.86463797,3.96533203 5.14459138,4.20988565 5.19269729,4.53290501 L5.2,4.6319987 C5.2,5.00018853 4.89658915,5.29866536 4.52647807,5.29866536 L2.00685527,5.29866536 C1.63487937,5.29866536 1.33333333,5.00275548 1.33333333,4.6319987 C1.33333333,4.26380886 1.63674418,3.96533203 2.00685527,3.96533203 L4.52647807,3.96533203 Z M8.66666667,0 L13,4.33333333 L9.67171224,4.33333333 C9.1140881,4.33333333 8.66666667,3.8833591 8.66666667,3.32828776 L8.66666667,3.32828776 L8.66666667,0 Z" id="Rectangle-581-Copy-5" transform="translate(6.500000, 8.000000) scale(1, -1) translate(-6.500000, -8.000000) "></path>
                </g>
            </g>
        </g>
    </g>
</svg>