<?xml version="1.0" encoding="utf-8"?>
<!-- Generator: Adobe Illustrator 26.0.2, SVG Export Plug-In . SVG Version: 6.00 Build 0)  -->
<svg version="1.1" id="Layer_1" xmlns="http://www.w3.org/2000/svg" xmlns:xlink="http://www.w3.org/1999/xlink" x="0px" y="0px"
	 viewBox="0 0 24 24" style="enable-background:new 0 0 24 24;" xml:space="preserve">
<style type="text/css">
	.st0{fill:#1C2530;}
</style>
<path class="st0" fill="#1C2530" d="M16.6,0.4c-0.5-0.5-1.4-0.5-1.9,0c-0.5,0.5-0.5,1.4,0,1.9l0.8,0.8c0.4,0.9-0.3,2.2-2.1,3.9
	c-1.3,1.3-2.4,2-3.3,2l0,0c-1.4-1.4-3.7-1.4-5.1,0L4.5,9.6l3.8,3.7L0,24l10.8-8.2l3.8,3.8l0.6-0.6c1.4-1.4,1.4-3.6,0-5l0,0
	c0-0.8,0.7-1.9,2-3.2C19,9,20.3,8.3,21.2,8.7l0.5,0.5c0.5,0.5,1.4,0.5,1.9,0c0.5-0.5,0.5-1.4,0-1.9L16.6,0.4z"/>
</svg>
