<?xml version="1.0" encoding="utf-8"?>
<!-- Generator: Adobe Illustrator 26.0.2, SVG Export Plug-In . SVG Version: 6.00 Build 0)  -->
<svg version="1.1" id="Layer_1" xmlns="http://www.w3.org/2000/svg" xmlns:xlink="http://www.w3.org/1999/xlink" x="0px" y="0px"
	 viewBox="0 0 24 24" style="enable-background:new 0 0 24 24;" xml:space="preserve">
<style type="text/css">
	.st0{fill-rule:evenodd;clip-rule:evenodd;fill:#1C2530;}
</style>
<g fill="currentColor" id="Combined-Shape-Copy-7">
	<path id="path-1_00000020365504778903045040000007875008220121299072_" class="st0" d="M12,3c5.7,0,10.3,4.7,10.3,10.5
		S17.7,24,12,24S1.7,19.3,1.7,13.5S6.3,3,12,3z M12,6c-4.1,0-7.3,3.4-7.3,7.5S7.9,21,12,21s7.3-3.4,7.3-7.5S16.1,6,12,6z M12,7.5
		c3.2,0,5.9,2.7,5.9,6c0,3.3-2.6,6-5.9,6c-1.7,0-3.2-0.7-4.3-1.9l4.3-4.1l0,0L12,7.5z M7.5,0.6c0.4,0.5,0.2,1.2-0.3,1.6l-4.4,3
		C2.3,5.5,1.5,5.4,1.2,4.8S1,3.6,1.5,3.2l4.4-3C6.5-0.1,7.2,0,7.5,0.6z M18.1,0.2l4.4,3c0.5,0.4,0.7,1.1,0.3,1.6
		c-0.4,0.5-1.1,0.7-1.6,0.3l-4.4-3c-0.5-0.4-0.7-1.1-0.3-1.6C16.8,0,17.5-0.1,18.1,0.2z"/>
</g>
</svg>
