<?xml version="1.0" encoding="UTF-8"?>
<svg width="24px" height="24px" viewBox="0 0 24 24" version="1.1" xmlns="http://www.w3.org/2000/svg" xmlns:xlink="http://www.w3.org/1999/xlink">
    <title>People</title>
    <defs>
        <path d="M7.54285714,4.63291139 C7.54285714,4.63291139 7.92731952,4.55548801 8.4953777,4.56095717 C9.03066049,4.57821667 9.50713917,4.64650913 9.93130472,4.76058189 C10.9592014,5.05381813 12.0668306,5.74270284 12.6857143,7.27997986 C13.5747449,9.48828884 13.4552235,11.0723423 13.1677442,12.2238376 L13.3224997,12.3635069 C13.2334842,12.2868967 13.1464663,12.2065153 13.0615107,12.1226014 C13.0476966,12.2313814 13.0295037,12.3406187 13.009444,12.4494578 L13.116313,12.4194303 C12.9689009,12.9536549 12.7934524,13.3888449 12.6857143,13.7468354 C12.3428571,14.8860759 10.9714286,16.7848101 10.9714286,16.7848101 L10.9714286,16.7848101 L14.4833261,17.9816593 C15.0012018,18.1581506 15.5974324,18.7130503 15.8057329,19.2178892 C15.8057329,19.2178892 16.4571429,20.5822785 16.4571429,21.721519 L16.4569193,21.6874587 C16.4637311,22.5474021 16.3152181,23.3982617 15.9635817,24 L0.49518179,24 C-0.362528533,22.5435039 -0.0148377756,19.6274736 0.842872548,18.6558685 C1.25143661,18.1928522 4.31429605,17.3184685 5.77964258,16.9204689 C4.23203483,15.5885376 3.28822442,13.1166869 3.28822442,10.7596788 C3.28822442,7.53037089 4.08641019,4.87769497 7.56239626,4.58397529 C7.55934631,4.59327009 7.55670996,4.59940774 7.55442024,4.60480313 Z M15.7700452,0 C19.8112648,0 20.7090089,2.77688242 20.7090089,6.20271678 C20.7090089,8.55243326 19.7701342,11.0169924 18.2302041,12.3519619 C19.6626462,12.7475309 22.7710235,13.6468276 23.1675226,14.0989065 C24.018652,15.0705115 24.3575682,17.9865419 23.5064388,19.443038 L19.7949781,19.4425944 C20.016833,16.9762958 18.5142857,16.0253165 18.5142857,16.0253165 L18.5142857,16.0253165 L14.4,14.5063291 C14.4,14.5063291 14.4761905,14.3797468 14.6031746,14.1687764 L14.7238651,13.9682622 C14.9877551,13.5298373 15.3795918,12.8788427 15.7714286,12.2278481 C17.6606414,8.39163007 16.0798715,4.87568998 15.8091971,4.32722308 L15.7812904,4.27191159 C15.7748557,4.25949103 15.7714286,4.25316456 15.7714286,4.25316456 L15.7598655,4.22907176 C15.6391972,3.98535412 14.5558442,1.97468354 11.6571429,1.97468354 L11.6872013,1.97527491 C12.4023374,0.75998051 13.6561864,0 15.7700452,0 Z" id="path-1"></path>
    </defs>
    <g id="Icons---In-Use-(ME)" stroke="none" stroke-width="1" fill="none" fill-rule="evenodd">
        <g id="Icons" transform="translate(-63.000000, -643.000000)">
            <g id="People" transform="translate(63.000000, 643.000000)">
                <rect id="Rectangle-5" x="0" y="0" width="24" height="24"></rect>
                <mask id="mask-2" fill="#1C2530">
                    <use xlink:href="#path-1"></use>
                </mask>
                <use id="Name-Icon" fill="#1C2530" xlink:href="#path-1"></use>
                <g id="Group" mask="url(#mask-2)" fill="#1C2530">
                    <g id="💟-Icon-Style">
                        <rect id="Rectangle-2" x="0" y="0" width="24" height="24"></rect>
                    </g>
                </g>
            </g>
        </g>
    </g>
</svg>