<?xml version="1.0" encoding="UTF-8"?>
<svg width="24px" height="24px" viewBox="0 0 24 24" version="1.1" xmlns="http://www.w3.org/2000/svg" xmlns:xlink="http://www.w3.org/1999/xlink">
    <title>03 - Icons/Miscellaneous/Success 3</title>
    <defs>
        <path d="M24,4.69184873 C24,4.2959 23.8801648,3.87595439 23.6255149,3.51150158 C23.6007989,3.47625615 21.0865061,-0.0460377189 19.6305081,0.00045626014 C15.540382,0.13018946 10.7327425,4.09492603 7.42004743,7.39749835 C4.10735239,10.7000707 0.131069779,15.4956996 0,19.5909193 L0,19.6246649 C0,21.0584793 3.48645612,23.5796528 3.52090875,23.6036497 C4.46910498,24.2658139 5.51167145,24.0243452 5.9348396,23.4221732 C6.19398327,23.0554707 8.86555986,19.0472397 9.16739483,18.5560533 C9.29846461,18.3408312 9.36287605,18.0813648 9.36287605,17.7964017 C9.36287605,17.4304491 9.25577331,17.0255015 9.04681064,16.628053 C8.84309075,16.241853 8.1765073,15.0735043 7.84845837,14.5028282 C8.20347023,13.9996434 9.11197104,12.8155467 10.9828985,10.952038 C12.8395956,9.099028 14.0357009,8.18414648 14.5442517,7.82794261 C15.1172138,8.15490027 16.2886032,8.81781442 16.6750718,9.0202882 C17.4023218,9.40198877 18.1273249,9.44623304 18.6179004,9.13577324 C19.079266,8.84406102 23.0690301,6.1894048 23.448009,5.91569024 C23.8075147,5.65622384 24,5.19428366 24,4.69184873 L24,4.69184873 L24,4.69184873 Z" id="path-1"></path>
    </defs>
    <g id="CL" stroke="none" stroke-width="1" fill="none" fill-rule="evenodd">
        <g id="Phone">
            <rect id="Rectangle-7" x="0" y="0" width="24" height="24"></rect>
            <mask id="mask-2" fill="white">
                <use xlink:href="#path-1"></use>
            </mask>
            <use id="Phone-Icon" fill="#000000" xlink:href="#path-1"></use>
        </g>
    </g>
</svg>