<?xml version="1.0" encoding="UTF-8"?>
<svg width="27px" height="26px" viewBox="0 0 27 26" version="1.1" xmlns="http://www.w3.org/2000/svg" xmlns:xlink="http://www.w3.org/1999/xlink">
    <title>Combined Shape@1x</title>
    <g id="Logos" stroke="none" stroke-width="1" fill-rule="evenodd">
        <g id="Home---Signed-In-01" transform="translate(-91.000000, -58.000000)" fill="#000000">
            <g id="Logo" transform="translate(91.000000, 58.000000)">
                <path d="M13.886162,13.5861568 C19.2961004,10.0210903 24.93961,9.62021325 26.6128918,10.2212798 C25.4062681,10.2212798 24.3164301,10.2611185 23.3826294,10.5818201 C23.849772,11.2227253 24.4337004,11.9836447 24.93961,12.745062 C20.8138294,18.7935741 18.4786007,21.1973423 12.5632373,25.4436508 C11.4341477,24.602058 10.4223283,23.8411387 9.48804301,23.120058 C8.24265233,23.2002334 7.34761864,23.0398826 6.64738925,22.5996649 C5.82988961,22.038437 5.40151398,21.3571951 5.28472832,20.6764512 C5.67433692,21.9179249 7.50317133,22.5996649 9.06015197,22.4786548 C11.356129,22.3586407 13.6918423,21.7580721 14.8592143,20.4762616 C16.2601577,18.9539249 16.0265864,17.0312092 13.886162,13.5861568 Z M13.0643115,14.540176 C13.7837024,16.9607358 13.663804,18.9656439 10.2673436,20.1754536 C6.51168525,21.4990503 8.8688596,16.92265 13.0643115,14.540176 Z M11.9891214,10.3466276 C12.1074262,11.0950848 12.3440357,11.8067709 12.5806452,12.5929303 C11.752512,13.0797999 10.3726172,13.9786003 9.78109349,14.4277677 C8.71684168,15.2139271 6.70615193,16.7867114 5.68117141,18.7337243 C5.01061423,18.1342138 4.024905,17.0487646 3.35483871,16.2626051 C7.10033744,14.2029513 9.86012695,12.1060607 11.9891214,10.3466276 Z M12.6126656,0.282111437 C17.1988031,3.49480238 19.6897708,5.60981175 22.4972785,9.13563901 C22.5760443,9.21404484 22.6159195,9.29245067 22.6159195,9.29245067 C20.0456937,9.56614057 16.2895506,10.7811874 13.3638942,12.4262488 C13.1266123,11.9173414 12.5732827,10.741741 12.9292056,9.84080447 C13.4825352,8.46943298 15.3802982,7.29431955 16.1315268,7.17646732 C16.6454735,7.09854848 17.752625,4.74783464 16.8039896,4.74783464 C12.2961257,4.78728105 11.0708255,11.2506484 1.66028415,14.9332873 C1.10695456,14.2675683 0.593007854,13.5229564 -0.000196914446,12.7004257 C4.19112707,6.78541217 6.60283675,4.43421133 12.6126656,0.282111437 Z" id="Combined-Shape"></path>
            </g>
        </g>
    </g>
</svg>
