<?xml version="1.0" encoding="UTF-8"?>
<svg width="24px" height="20px" viewBox="0 0 24 20" version="1.1" xmlns="http://www.w3.org/2000/svg" xmlns:xlink="http://www.w3.org/1999/xlink">
    <title>Serving Opportunity</title>
    <defs>
        <path d="M21.7595424,13.3994832 C20.8983029,14.2148936 19.9061096,15.1566117 18.8918373,16.1193938 L13.0385125,21.6284902 C12.7843337,21.8688719 12.439571,22.0026292 12.0810375,22 C11.2818984,21.9930013 10.6321898,21.3855197 10.6116666,20.6260897 C10.6020835,20.2778706 10.7425534,19.9410419 11.0005283,19.6936488 L16.6911407,14.2897961 L16.1598057,13.78525 L10.4684733,19.189635 C10.2133886,19.4286865 9.86919927,19.5621393 9.51099831,19.5608775 C8.70206149,19.553841 8.04774584,18.9328394 8.03906752,18.1638893 C8.0363514,17.8233363 8.17726867,17.4959427 8.43032912,17.2548697 L14.1211816,11.8507128 L13.51601,11.2759789 L7.82219771,16.6777784 C7.56813289,16.918183 7.22343211,17.0519498 6.86496272,17.0492491 C6.06561355,17.0429313 5.41547448,16.435314 5.39527182,15.6756821 C5.38462318,15.3272322 5.52531736,14.9899768 5.78429353,14.7431652 L11.2021188,9.60090089 L11.366991,9.75747369 C11.8093326,10.1723015 12.4071605,10.4027349 13.0285129,10.3979089 C13.7414936,10.3891189 14.4226195,10.1157614 14.9265037,9.6361849 C15.940776,8.66861216 15.9995732,7.1524643 15.0544977,6.25530749 L12.4159817,3.75037086 C15.1315298,1.35778185 19.3489477,1.42692063 21.9760922,3.90709574 C23.2665509,5.10877081 23.995681,6.75248443 24,8.46968334 C24.001757,10.2735023 23.2069144,12.0231026 21.7595424,13.3994832 Z M14.4884443,9.21962066 C14.1022224,9.59072249 13.5777914,9.80230752 13.0286729,9.80857467 C12.5710821,9.81344865 12.1301813,9.64539859 11.8028906,9.3413657 L6.96367808,4.745091 L6.52545868,5.1610469 L8.19698009,6.74745861 L2.77915482,11.8901792 C2.62026117,12.0412867 2.49031904,12.217587 2.39517287,12.4111507 C2.2458383,12.7110854 2.18292599,13.0433237 2.21286144,13.3739327 C0.782688687,12.0024189 -0.00239440134,10.2616396 1.42108547e-14,8.46968334 C0.00429956501,6.75240008 0.733257314,5.10855841 2.02351035,3.90656344 C4.12287185,1.92634263 7.31501705,1.43528218 9.964257,2.68500665 C10.3621032,2.87179537 10.7389771,3.09648836 11.0890841,3.35563098 L11.2589961,3.48163445 L14.6188382,6.66852584 C15.3202452,7.338846 15.2638478,8.48375132 14.4883643,9.21977274 L14.4884443,9.21962066 Z M8.6327196,7.1612853 L10.6707838,9.09567036 L5.2531185,14.2383149 C4.99805827,14.4773821 4.65391914,14.6109086 4.29572352,14.6097926 C3.48677056,14.6025036 2.83255312,13.9814601 2.82374902,13.2124932 C2.82089874,12.8719748 2.9618479,12.5445892 3.21505432,12.3037017 L8.6327196,7.1612853 Z" id="path-1"></path>
    </defs>
    <g id="Icons---In-Use-(ME)" stroke="none" stroke-width="1" fill="none" fill-rule="evenodd">
        <g id="Icons" transform="translate(-63.000000, -497.000000)">
            <g id="Serving-Opportunity" transform="translate(63.000000, 495.000000)">
                <rect id="Rectangle-3" x="0" y="0" width="24" height="24"></rect>
                <mask id="mask-2" fill="#1C2530">
                    <use xlink:href="#path-1"></use>
                </mask>
                <use id="serving-opportunity" fill="#1C2530" fill-rule="nonzero" xlink:href="#path-1"></use>
                <g id="Group" mask="url(#mask-2)" fill="#1C2530">
                    <g id="💟-Icon-Style">
                        <rect id="Rectangle-2" x="0" y="0" width="24" height="24"></rect>
                    </g>
                </g>
            </g>
        </g>
    </g>
</svg>