<?xml version="1.0" encoding="UTF-8"?>
<svg width="24px" height="24px" viewBox="0 0 24 24" version="1.1" xmlns="http://www.w3.org/2000/svg" xmlns:xlink="http://www.w3.org/1999/xlink">
    <title>SHAPE - Experiences</title>
    <defs>
        <path d="M23.999991,11.995437 C24.0030055,14.0989889 23.246374,16.1254472 23.246374,16.1254472 C23.246374,16.1254472 22.3501725,17.7193008 22.718842,21.0263927 C22.734668,21.0594327 22.8716755,23.9118931 19.3275652,24 C16.7165835,23.9518165 16.4692464,21.3837211 16.4638204,20.916259 C16.4833813,20.339181 16.5973293,19.9882136 16.74183,19.6636816 L16.8419896,19.4490521 C17.0829878,18.9471622 17.3635909,18.4018692 17.4435226,17.0615829 C17.5862576,14.6682144 14.813399,13.6444124 14.8812246,10.1782325 C14.9490501,6.71205263 16.3669052,5.11891496 19.1014801,5.00195307 L19.1151845,5.00125988 C19.1197047,5.00107112 19.1253191,5.0008669 19.1319916,5.00067894 L19.2196454,5.00028302 C19.9434477,5.01140708 23.7550726,5.38460966 23.999991,11.995437 Z M4.86800837,0.000678939781 C4.87468091,0.000866899866 4.88029526,0.00107112319 4.88481549,0.00125988313 L4.89851989,0.00195306941 C7.63309477,0.118914958 9.05094991,1.71205263 9.11877545,5.17823252 C9.18660098,8.64441242 6.41374236,9.66821441 6.55647743,12.0615829 C6.63640907,13.4018692 6.91701218,13.9471622 7.15801038,14.4490521 L7.25817002,14.6636816 C7.40267075,14.9882136 7.51661873,15.339181 7.53617961,15.916259 C7.53075357,16.3837211 7.28341645,18.9518165 4.67243478,19 C1.12832445,18.9118931 1.26533203,16.0594327 1.28115799,16.0263927 C1.64982746,12.7193008 0.753626047,11.1254472 0.753626047,11.1254472 C0.753626047,11.1254472 -0.00300548474,9.09898888 8.98351072e-06,6.99543701 C0.244927352,0.384609659 4.05655225,0.0114070779 4.78035456,0.00028302487 Z" id="path-1"></path>
    </defs>
    <g id="Icons---In-Use-(ME)" stroke="none" stroke-width="1" fill="none" fill-rule="evenodd">
        <g id="Icons" transform="translate(-62.000000, -421.000000)">
            <g id="SHAPE---Experiences" transform="translate(62.000000, 421.000000)">
                <rect id="Rectangle-5" x="0" y="0" width="24" height="24"></rect>
                <mask id="mask-2" fill="#1C2530">
                    <use xlink:href="#path-1"></use>
                </mask>
                <use id="Combined-Shape" fill="#1C2530" xlink:href="#path-1"></use>
                <g id="Group" mask="url(#mask-2)" fill="#1C2530">
                    <g id="💟-Icon-Style">
                        <rect id="Rectangle-2" x="0" y="0" width="24" height="24"></rect>
                    </g>
                </g>
            </g>
        </g>
    </g>
</svg>