<?xml version="1.0" encoding="UTF-8"?>
<svg width="24px" height="24px" viewBox="0 0 24 24" version="1.1" xmlns="http://www.w3.org/2000/svg" xmlns:xlink="http://www.w3.org/1999/xlink">
    <title>SMS</title>
    <defs>
        <path d="M18.375,24 L10.1240625,18 L5.625,18 C2.518125,18 0,16.4203125 0,13.3125 L0,5.625 C0,2.5190625 2.518125,0 5.625,0 L18.375,0 C21.4809375,0 24,2.5190625 24,5.625 L24,12.3759375 C24,15.481875 21.4809375,18 18.375,18 L18.375,24 Z M7.49554521,7.5 C6.6695784,7.5 6,6.83420277 6,6 L6,6 C6,5.17157288 6.67955446,4.5 7.49554521,4.5 L16.5044548,4.5 C17.3304216,4.5 18,5.16579723 18,6 L18,6 C18,6.82842712 17.3204455,7.5 16.5044548,7.5 L7.49554521,7.5 Z M15.0006104,10.125 C15.9322538,10.125 16.6875,10.8740219 16.6875,11.8125 L16.6875,11.8125 C16.6875,12.7444805 15.9361519,13.5 15.0006104,13.5 L8.99938964,13.5 C8.06774622,13.5 7.3125,12.7509781 7.3125,11.8125 L7.3125,11.8125 C7.3125,10.8805195 8.06384807,10.125 8.99938964,10.125 L15.0006104,10.125 Z" id="path-1"></path>
    </defs>
    <g id="Icons---In-Use-(ME)" stroke="none" stroke-width="1" fill="none" fill-rule="evenodd">
        <g id="Icons" transform="translate(-893.000000, -349.000000)">
            <g id="SMS" transform="translate(893.000000, 349.000000)">
                <rect id="Rectangle-7" x="0" y="0" width="24" height="24"></rect>
                <mask id="mask-2" fill="white">
                    <use xlink:href="#path-1"></use>
                </mask>
                <use id="Shape" fill="#1C2530" xlink:href="#path-1"></use>
            </g>
        </g>
    </g>
</svg>