<?xml version="1.0" encoding="UTF-8"?>
<svg width="38px" height="38px" viewBox="0 0 38 38" version="1.1" xmlns="http://www.w3.org/2000/svg" xmlns:xlink="http://www.w3.org/1999/xlink">
    <title>Icon</title>
    <defs>
        <linearGradient x1="62.2532895%" y1="119.633268%" x2="62.2532895%" y2="-4.87331058%" id="linearGradient-1">
            <stop stop-color="#005777" offset="0%"></stop>
            <stop stop-color="#1C93C4" offset="100%"></stop>
        </linearGradient>
        <linearGradient x1="50%" y1="0%" x2="50%" y2="100%" id="linearGradient-2">
            <stop stop-color="#9AC47C" offset="0%"></stop>
            <stop stop-color="#447730" offset="100%"></stop>
        </linearGradient>
    </defs>
    <g id="Team-Lists" stroke="none" stroke-width="1" fill="none" fill-rule="evenodd">
        <g id="My-Lists---Team-and-Shared-List" transform="translate(-55.000000, -352.000000)">
            <g id="Group-2" transform="translate(22.000000, 340.000000)">
                <g id="New/Surfaces/List-Items-(Small)/Follow-Up-Item" transform="translate(33.000000, 0.000000)">
                    <g id="Icon" transform="translate(0.000000, 12.000000)">
                        <g>
                            <rect id="Rectangle" fill="url(#linearGradient-1)" x="0" y="0" width="30" height="30" rx="6"></rect>
                            <g id="💜-Icon" transform="translate(11.000000, 11.000000)">
                                <rect id="Spacer" x="0" y="0" width="16" height="16"></rect>
                                <path d="M7.54951657e-14,14.6045475 C7.54951657e-14,14.1128695 0.402825285,13.7142857 0.888130213,13.7142857 L10.4301978,13.7142857 C10.9206985,13.7142857 11.318328,14.1124268 11.318328,14.6045475 L11.318328,15.1097382 C11.318328,15.6014162 10.9155027,16 10.4301978,16 L0.888130213,16 C0.39762944,16 7.54951657e-14,15.601859 7.54951657e-14,15.1097382 L7.54951657e-14,14.6045475 Z M7.63833441e-14,10.0331189 C7.63833441e-14,9.54144092 0.395507813,9.14285714 0.883020163,9.14285714 L15.1169798,9.14285714 C15.6046584,9.14285714 16,9.54099819 16,10.0331189 L16,10.5383096 C16,11.0299877 15.6044922,11.4285714 15.1169798,11.4285714 L0.883020163,11.4285714 C0.395341593,11.4285714 7.63833441e-14,11.0304304 7.63833441e-14,10.5383096 L7.63833441e-14,10.0331189 Z M7.54951657e-14,5.46169036 C7.54951657e-14,4.97001235 0.403020206,4.57142857 0.892879618,4.57142857 L12.0974741,4.57142857 C12.5905979,4.57142857 12.9903537,4.96956961 12.9903537,5.46169036 L12.9903537,5.96688107 C12.9903537,6.45855908 12.5873335,6.85714286 12.0974741,6.85714286 L0.892879618,6.85714286 C0.399755822,6.85714286 7.54951657e-14,6.45900181 7.54951657e-14,5.96688107 L7.54951657e-14,5.46169036 Z M7.59392549e-14,0.890261786 C7.59392549e-14,0.398583778 0.391567022,1.64313008e-14 0.88057618,1.64313008e-14 L5.08726948,1.64313008e-14 C5.57359827,1.64313008e-14 5.96784566,0.398141044 5.96784566,0.890261786 L5.96784566,1.3954525 C5.96784566,1.88713051 5.57627864,2.28571429 5.08726948,2.28571429 L0.88057618,2.28571429 C0.394247385,2.28571429 7.59392549e-14,1.88757324 7.59392549e-14,1.3954525 L7.59392549e-14,0.890261786 Z" id="Text" fill="#FFFFFF" transform="translate(8.000000, 8.000000) scale(1, -1) translate(-8.000000, -8.000000) "></path>
                            </g>
                        </g>
                        <g transform="translate(8.000000, 8.000000)">
                            <rect id="Rectangle" fill="url(#linearGradient-2)" x="0" y="0" width="30" height="30" rx="6"></rect>
                            <g id="💜-Icon" transform="translate(8.000000, 8.000000)">
                                <rect id="Spacer" x="0" y="0" width="14" height="14"></rect>
                                <path d="M6.66133815e-14,12.7789791 C6.66133815e-14,12.3487608 0.352472124,12 0.777113936,12 L9.12642304,12 C9.55561122,12 9.90353698,12.3483734 9.90353698,12.7789791 L9.90353698,13.2210209 C9.90353698,13.6512392 9.55106485,14 9.12642304,14 L0.777113936,14 C0.34792576,14 6.66133815e-14,13.6516266 6.66133815e-14,13.2210209 L6.66133815e-14,12.7789791 Z M6.66133815e-14,8.77897906 C6.66133815e-14,8.34876081 0.346069336,8 0.772642642,8 L13.2273574,8 C13.6540761,8 14,8.34837341 14,8.77897906 L14,9.22102094 C14,9.65123919 13.6539307,10 13.2273574,10 L0.772642642,10 C0.345923894,10 6.66133815e-14,9.65162659 6.66133815e-14,9.22102094 L6.66133815e-14,8.77897906 Z M6.66133815e-14,4.77897906 C6.66133815e-14,4.34876081 0.35264268,4 0.781269666,4 L10.5852898,4 C11.0167731,4 11.3665595,4.34837341 11.3665595,4.77897906 L11.3665595,5.22102094 C11.3665595,5.65123919 11.0139168,6 10.5852898,6 L0.781269666,6 C0.349786344,6 6.66133815e-14,5.65162659 6.66133815e-14,5.22102094 L6.66133815e-14,4.77897906 Z M6.61692923e-14,0.778979063 C6.61692923e-14,0.348760806 0.342621144,1.44328993e-14 0.770504157,1.44328993e-14 L4.45136079,1.44328993e-14 C4.87689849,1.44328993e-14 5.22186495,0.348373413 5.22186495,0.778979063 L5.22186495,1.22102094 C5.22186495,1.65123919 4.87924381,2 4.45136079,2 L0.770504157,2 C0.344966462,2 6.61692923e-14,1.65162659 6.61692923e-14,1.22102094 L6.61692923e-14,0.778979063 Z" id="Text" fill="#FFFFFF" transform="translate(7.000000, 7.000000) scale(1, -1) translate(-7.000000, -7.000000) "></path>
                            </g>
                        </g>
                    </g>
                </g>
            </g>
        </g>
    </g>
</svg>