<?xml version="1.0" encoding="UTF-8"?>
<svg width="24px" height="24px" viewBox="0 0 24 24" version="1.1" xmlns="http://www.w3.org/2000/svg" xmlns:xlink="http://www.w3.org/1999/xlink">
    <title>time-icon</title>
    <defs>
        <path d="M12,0 C18.627417,0 24,5.372583 24,12 C24,18.627417 18.627417,24 12,24 C5.372583,24 0,18.627417 0,12 C0,5.372583 5.372583,0 12,0 Z M12,3 C7.02943725,3 3,7.02943725 3,12 C3,16.9705627 7.02943725,21 12,21 C16.9705627,21 21,16.9705627 21,12 C21,7.02943725 16.9705627,3 12,3 Z M12.5010434,6 C13.0527519,6 13.5,6.45097518 13.5,6.99077797 L13.5,9.998 L17.1112286,14.7903692 C17.4427857,15.2303604 17.3580417,15.8534434 16.9137638,16.1882309 L16.1134616,16.7913018 C15.6728476,17.1233282 15.0470625,17.0360487 14.7153221,16.5958143 L11.2208956,11.9605516 C10.8044821,11.8395318 10.5,11.4546134 10.5,11.009222 L10.5,11.002 L10.4996616,11.0014438 C10.2252961,10.6373485 10.2359995,10.1478782 10.4996046,9.80014353 L10.5,6.99077797 C10.5,6.44358641 10.9426603,6 11.4989566,6 L12.5010434,6 Z" id="path-1"></path>
    </defs>
    <g id="Volunteer-Hours---B-2-(w/-numeric-keyboard)" stroke="none" stroke-width="1" fill="none" fill-rule="evenodd">
        <mask id="mask-2" fill="white">
            <use xlink:href="#path-1"></use>
        </mask>
        <use id="time-icon" fill="#000000" xlink:href="#path-1"></use>
    </g>
</svg>