<?xml version="1.0" encoding="UTF-8"?>
<svg width="24px" height="24px" viewBox="0 0 24 24" version="1.1" xmlns="http://www.w3.org/2000/svg" xmlns:xlink="http://www.w3.org/1999/xlink">
    <title>Close X Complex</title>
    <g id="Icons---In-Use-(ME)" stroke="none" stroke-width="1" fill="none" fill-rule="evenodd">
        <g id="Icons" transform="translate(-541.000000, -1009.000000)">
            <g id="Close-X-Complex" transform="translate(541.000000, 1009.000000)">
                <circle id="Combined-Shape" fill="#1C2530" cx="12" cy="12" r="12"></circle>
                <g id="Close-X---Gray-@2x" transform="translate(6.000000, 6.000000)">
                    <path d="M7.46218487,6.05042017 L11.697479,1.81512605 C12.1008403,1.41176471 12.1008403,0.806722689 11.697479,0.403361345 C11.2941176,5.64441118e-17 10.6890756,5.64441118e-17 10.2857143,0.403361345 L6.05042017,4.53781513 L1.71428571,0.302521008 C1.31092437,-0.100840336 0.705882353,-0.100840336 0.302521008,0.302521008 C-0.100840336,0.705882353 -0.100840336,1.31092437 0.302521008,1.71428571 L4.53781513,6.05042017 L0.302521008,10.2857143 C-0.100840336,10.6890756 -0.100840336,11.2941176 0.302521008,11.697479 C0.705882353,12.1008403 1.31092437,12.1008403 1.71428571,11.697479 L6.05042017,7.46218487 L10.2857143,11.697479 C10.6890756,12.1008403 11.2941176,12.1008403 11.697479,11.697479 C12.1008403,11.2941176 12.1008403,10.6890756 11.697479,10.2857143 L7.46218487,6.05042017 L7.46218487,6.05042017 Z" id="X" fill="#FFFFFF"></path>
                    <rect id="Rectangle-3" x="0" y="0" width="12" height="12"></rect>
                </g>
            </g>
        </g>
    </g>
</svg>